<?xml version="1.0" encoding="UTF-8"?>
<!DOCTYPE svg PUBLIC "-//W3C//DTD SVG 1.1//EN" "http://www.w3.org/Graphics/SVG/1.1/DTD/svg11.dtd">
<!-- Creator: CorelDRAW -->
<svg xmlns="http://www.w3.org/2000/svg" xml:space="preserve" width="61px" height="25px" version="1.1" style="shape-rendering:geometricPrecision; text-rendering:geometricPrecision; image-rendering:optimizeQuality; fill-rule:evenodd; clip-rule:evenodd"
viewBox="0 0 61 25.19"
 xmlns:xlink="http://www.w3.org/1999/xlink"
 xmlns:xodm="http://www.corel.com/coreldraw/odm/2003">
 <defs>
  <style type="text/css">
   <![CDATA[
    .fil0 {fill:#DFDAD8;fill-rule:nonzero}
   ]]>
  </style>
 </defs>
 <g id="Layer_x0020_1">
  <metadata id="CorelCorpID_0Corel-Layer"/>
  <g id="_2393219008864">
   <path class="fil0" d="M30.1 25.19c-1.94,0 -3.82,-0.77 -5.29,-2.23l-12.57 -12.58c-1.18,-1.18 -2.79,-1.53 -4.34,-0.97 -1.7,0.62 -2.75,2.33 -2.75,4.14l0 8.95c0,1.48 -1.21,2.69 -2.69,2.69l0 0c-1.49,0 -2.69,-1.21 -2.69,-2.69l0 -8.8c0,-4.29 2.67,-8.25 6.77,-9.51 3.38,-1.04 6.95,-0.17 9.51,2.39l12.57 12.57c0.95,0.95 2.05,0.6 2.36,0.47 0.31,-0.13 1.34,-0.65 1.34,-2l0 -5.6c0,-6.64 5.38,-12.02 12.02,-12.02l13.74 0c1.48,0 2.69,1.2 2.69,2.69l0 0c0,1.49 -1.21,2.69 -2.69,2.69l-13.74 0c-3.67,0 -6.64,2.97 -6.64,6.64l0 5.27c0,3.35 -2.04,6.47 -5.22,7.51 -0.78,0.26 -1.58,0.39 -2.38,0.39z"/>
   <path class="fil0" d="M52.66 15.24l0 5.41c0,1.49 -1.2,2.69 -2.69,2.69l0 0c-1.48,0 -2.69,-1.2 -2.69,-2.69l0 -5.41c0,-1.49 1.21,-2.69 2.69,-2.69l0 0c1.49,0 2.69,1.2 2.69,2.69z"/>
  </g>
 </g>
</svg>
