<?xml version="1.0" encoding="UTF-8"?>
<!DOCTYPE svg PUBLIC "-//W3C//DTD SVG 1.1//EN" "http://www.w3.org/Graphics/SVG/1.1/DTD/svg11.dtd">
<!-- Creator: CorelDRAW -->
<svg xmlns="http://www.w3.org/2000/svg" xml:space="preserve" width="1000px" height="413px" version="1.1" style="shape-rendering:geometricPrecision; text-rendering:geometricPrecision; image-rendering:optimizeQuality; fill-rule:evenodd; clip-rule:evenodd"
viewBox="0 0 1000 412.92"
 xmlns:xlink="http://www.w3.org/1999/xlink"
 xmlns:xodm="http://www.corel.com/coreldraw/odm/2003">
 <defs>
  <style type="text/css">
   <![CDATA[
    .fil0 {fill:#DFDAD8;fill-rule:nonzero;fill-opacity:0.050980}
   ]]>
  </style>
 </defs>
 <g id="Layer_x0020_1">
  <metadata id="CorelCorpID_0Corel-Layer"/>
  <g id="_2428031385440">
   <path class="fil0" d="M497.32 413.46c-31.85,0 -62.72,-12.58 -86.71,-36.55l-206.13 -206.15c-19.36,-19.34 -45.71,-25.18 -71.09,-15.97 -27.87,10.13 -45.15,38.2 -45.15,67.86l0 146.69c0,24.38 -19.75,44.12 -44.12,44.12l0 0c-24.37,0 -44.12,-19.74 -44.12,-44.12l0 -144.21c0,-70.35 43.88,-135.18 111.1,-155.9 55.41,-17.1 113.92,-2.71 155.78,39.15l206.13 206.14c15.55,15.56 33.55,9.83 38.68,7.69 5.14,-2.13 21.92,-10.78 21.92,-32.8l0 -91.86c0,-108.81 88.2,-197.01 197.01,-197.01l225.26 0c24.37,0 44.12,19.75 44.12,44.12l0 0c0,24.36 -19.75,44.12 -44.12,44.12l-225.26 0c-60.07,0 -108.77,48.69 -108.77,108.77l0 86.43c0,54.88 -33.43,105.97 -85.55,123.15 -12.88,4.25 -26.01,6.33 -38.98,6.33z"/>
   <path class="fil0" d="M867.12 250.33l0 88.76c0,24.37 -19.75,44.12 -44.11,44.12l0 0c-24.37,0 -44.12,-19.75 -44.12,-44.12l0 -88.76c0,-24.36 19.75,-44.11 44.12,-44.11l0 0c24.36,0 44.11,19.75 44.11,44.11z"/>
  </g>
 </g>
</svg>
